<svg id="Слой_6" data-name="Слой 6" xmlns="http://www.w3.org/2000/svg" viewBox="0 0 208.42041 101.11441"><defs><style>.cls-1{fill:#163a54;}</style></defs><title>Investment corporation2</title><path class="cls-1" d="M383.80909,715.95908V704.63584h1.3169v11.32324Z" transform="translate(-383.80909 -630.50873)"/><path class="cls-1" d="M397.07618,715.95908h-1.50244l-6.18848-9.50293h-.06152q.12378,1.67285.12353,3.0664v6.43653h-1.21582V704.63584h1.48731l6.17236,9.46386h.062q-.01537-.208-.06982-1.34375-.05419-1.13379-.03857-1.62207v-6.498h1.23144Z" transform="translate(-383.80909 -630.50873)"/><path class="cls-1" d="M406.65626,704.63584h1.41748l-4.08154,11.32324h-1.30127l-4.05811-11.32324h1.394l2.60206,7.32714a20.45275,20.45275,0,0,1,.71289,2.45508,20.34586,20.34586,0,0,1,.728-2.50195Z" transform="translate(-383.80909 -630.50873)"/><path class="cls-1" d="M415.94239,715.95908h-6.312V704.63584h6.312v1.16992h-4.99512v3.64746h4.69336v1.16211h-4.69336v4.166h4.99512Z" transform="translate(-383.80909 -630.50873)"/><path class="cls-1" d="M424.84132,712.94638a2.77826,2.77826,0,0,1-1.08448,2.33106,4.70042,4.70042,0,0,1-2.94287.83593,7.37673,7.37673,0,0,1-3.09814-.51855v-1.27051a8.12988,8.12988,0,0,0,1.51807.46485,7.94119,7.94119,0,0,0,1.62646.17089,3.28264,3.28264,0,0,0,1.98291-.5,1.63873,1.63873,0,0,0,.666-1.38964,1.79,1.79,0,0,0-.23633-.96485,2.20339,2.20339,0,0,0-.79-.69336,11.14083,11.14083,0,0,0-1.68457-.71972,5.373,5.373,0,0,1-2.25733-1.33985,2.95749,2.95749,0,0,1-.67773-2.02148,2.51282,2.51282,0,0,1,.9834-2.083,4.08528,4.08528,0,0,1,2.602-.77441,7.66822,7.66822,0,0,1,3.106.61914l-.41065,1.14648a7.01589,7.01589,0,0,0-2.72607-.58887,2.6374,2.6374,0,0,0-1.63428.44922,1.48112,1.48112,0,0,0-.58838,1.24707,1.9085,1.9085,0,0,0,.2168.96387,2.03269,2.03269,0,0,0,.73193.68945,9.08812,9.08812,0,0,0,1.57617.69336,6.234,6.234,0,0,1,2.45118,1.36328A2.6824,2.6824,0,0,1,424.84132,712.94638Z" transform="translate(-383.80909 -630.50873)"/><path class="cls-1" d="M430.6421,715.95908h-1.3169V705.80576h-3.58545v-1.16992H434.228v1.16992H430.6421Z" transform="translate(-383.80909 -630.50873)"/><path class="cls-1" d="M440.94239,715.95908,437.10108,705.922h-.062q.10841,1.19238.1084,2.834v7.20313h-1.21582V704.63584h1.98291L441.5,713.97568h.062l3.61719-9.33984H447.146v11.32324h-1.3164v-7.2959q0-1.25391.1084-2.72656h-.062l-3.87256,10.02246Z" transform="translate(-383.80909 -630.50873)"/><path class="cls-1" d="M456.564,715.95908h-6.312V704.63584h6.312v1.16992h-4.99511v3.64746h4.69336v1.16211h-4.69336v4.166H456.564Z" transform="translate(-383.80909 -630.50873)"/><path class="cls-1" d="M467.918,715.95908h-1.50244l-6.18848-9.50293h-.06152q.12378,1.67285.12353,3.0664v6.43653h-1.21582V704.63584h1.48731l6.17236,9.46386h.062q-.01538-.208-.06982-1.34375-.05421-1.13379-.03858-1.62207v-6.498H467.918Z" transform="translate(-383.80909 -630.50873)"/><path class="cls-1" d="M474.51661,715.95908h-1.31689V705.80576h-3.58545v-1.16992h8.48828v1.16992h-3.58594Z" transform="translate(-383.80909 -630.50873)"/><path class="cls-1" d="M488.77442,705.65048a3.70089,3.70089,0,0,0-2.94677,1.24317,5.01193,5.01193,0,0,0-1.08057,3.40332,5.11405,5.11405,0,0,0,1.042,3.43554,3.70406,3.70406,0,0,0,2.97022,1.21192,10.18875,10.18875,0,0,0,2.70361-.42578V715.672a8.31659,8.31659,0,0,1-2.90527.4414,4.91452,4.91452,0,0,1-3.86084-1.51757,6.25267,6.25267,0,0,1-1.35889-4.31348,6.80746,6.80746,0,0,1,.6543-3.06738,4.698,4.698,0,0,1,1.88964-2.0293,5.7243,5.7243,0,0,1,2.90821-.71191,7.02424,7.02424,0,0,1,3.11426.65039l-.5586,1.13086A5.99312,5.99312,0,0,0,488.77442,705.65048Z" transform="translate(-383.80909 -630.50873)"/><path class="cls-1" d="M503.76075,710.28232a6.22928,6.22928,0,0,1-1.375,4.27441,4.83068,4.83068,0,0,1-3.82129,1.55664,4.89559,4.89559,0,0,1-3.86133-1.52929,6.28311,6.28311,0,0,1-1.35937-4.31739,6.20855,6.20855,0,0,1,1.36328-4.2871,4.92822,4.92822,0,0,1,3.87207-1.52149,4.81988,4.81988,0,0,1,3.81055,1.54883A6.22638,6.22638,0,0,1,503.76075,710.28232Zm-9.02246,0a5.37017,5.37017,0,0,0,.97949,3.48828,4,4,0,0,0,5.68848.00391,6.79,6.79,0,0,0,.00391-6.958,3.42583,3.42583,0,0,0-2.83106-1.18164,3.494,3.494,0,0,0-2.86133,1.18945A5.31508,5.31508,0,0,0,494.73829,710.28232Z" transform="translate(-383.80909 -630.50873)"/><path class="cls-1" d="M507.60157,711.25009v4.709h-1.3164V704.63584h3.10546a4.88734,4.88734,0,0,1,3.07911.79785,2.89339,2.89339,0,0,1,.99511,2.40039,3.00633,3.00633,0,0,1-2.27734,3.03613l3.07519,5.08887h-1.55664l-2.74218-4.709Zm0-1.13086h1.80469a3.11658,3.11658,0,0,0,2.04492-.55371,2.06063,2.06063,0,0,0,.65039-1.66113,1.89175,1.89175,0,0,0-.66211-1.61914,3.59109,3.59109,0,0,0-2.126-.49512h-1.71192Z" transform="translate(-383.80909 -630.50873)"/><path class="cls-1" d="M523.27052,707.93564a3.17208,3.17208,0,0,1-1.17383,2.64453,5.31415,5.31415,0,0,1-3.35742.92578h-1.332v4.45313h-1.31641V704.63584h2.93555Q523.27,704.63584,523.27052,707.93564Zm-5.86328,2.43945h1.18554a4.40391,4.40391,0,0,0,2.53223-.56543,2.0844,2.0844,0,0,0,.78223-1.8125,1.95293,1.95293,0,0,0-.73536-1.67285,3.84917,3.84917,0,0,0-2.293-.5498h-1.47168Z" transform="translate(-383.80909 -630.50873)"/><path class="cls-1" d="M535.46778,710.28232a6.22928,6.22928,0,0,1-1.375,4.27441,4.83068,4.83068,0,0,1-3.82129,1.55664,4.89557,4.89557,0,0,1-3.86132-1.52929,6.28311,6.28311,0,0,1-1.35938-4.31739,6.20855,6.20855,0,0,1,1.36328-4.2871,4.92822,4.92822,0,0,1,3.87207-1.52149,4.81988,4.81988,0,0,1,3.81055,1.54883A6.22638,6.22638,0,0,1,535.46778,710.28232Zm-9.02246,0a5.37017,5.37017,0,0,0,.97949,3.48828,4,4,0,0,0,5.68848.00391,6.79,6.79,0,0,0,.00391-6.958,3.42583,3.42583,0,0,0-2.83106-1.18164,3.49406,3.49406,0,0,0-2.86133,1.18945A5.31508,5.31508,0,0,0,526.44532,710.28232Z" transform="translate(-383.80909 -630.50873)"/><path class="cls-1" d="M539.30958,711.25009v4.709h-1.31641V704.63584h3.10547a4.8873,4.8873,0,0,1,3.0791.79785,2.89337,2.89337,0,0,1,.99512,2.40039,3.00633,3.00633,0,0,1-2.27734,3.03613l3.07519,5.08887h-1.55664l-2.74219-4.709Zm0-1.13086h1.80469a3.11662,3.11662,0,0,0,2.04492-.55371,2.06063,2.06063,0,0,0,.65039-1.66113,1.89175,1.89175,0,0,0-.66211-1.61914,3.59112,3.59112,0,0,0-2.126-.49512h-1.71191Z" transform="translate(-383.80909 -630.50873)"/><path class="cls-1" d="M554.915,715.95908l-1.40918-3.60157h-4.53809l-1.39453,3.60157h-1.332l4.47656-11.37012h1.10742l4.45313,11.37012Zm-1.81934-4.78614-1.31738-3.50878q-.25488-.66651-.52637-1.63379a14.78834,14.78834,0,0,1-.4873,1.63379l-1.333,3.50878Z" transform="translate(-383.80909 -630.50873)"/><path class="cls-1" d="M561.32032,715.95908h-1.3164V705.80576H556.418v-1.16992h8.48828v1.16992h-3.58594Z" transform="translate(-383.80909 -630.50873)"/><path class="cls-1" d="M566.60938,715.95908V704.63584h1.31641v11.32324Z" transform="translate(-383.80909 -630.50873)"/><path class="cls-1" d="M580.86036,710.28232a6.22928,6.22928,0,0,1-1.375,4.27441,4.83069,4.83069,0,0,1-3.82129,1.55664,4.89559,4.89559,0,0,1-3.86133-1.52929,6.28311,6.28311,0,0,1-1.35937-4.31739,6.20855,6.20855,0,0,1,1.36328-4.2871,4.92822,4.92822,0,0,1,3.87207-1.52149,4.81988,4.81988,0,0,1,3.81055,1.54883A6.22638,6.22638,0,0,1,580.86036,710.28232Zm-9.02246,0a5.37017,5.37017,0,0,0,.97949,3.48828,4,4,0,0,0,5.68848.00391,6.79,6.79,0,0,0,.0039-6.958,3.4258,3.4258,0,0,0-2.83105-1.18164,3.494,3.494,0,0,0-2.86133,1.18945A5.31508,5.31508,0,0,0,571.8379,710.28232Z" transform="translate(-383.80909 -630.50873)"/><path class="cls-1" d="M592.2295,715.95908h-1.50293l-6.1875-9.50293h-.0625q.12451,1.67285.124,3.0664v6.43653h-1.21582V704.63584h1.48731l6.17285,9.46386h.06152q-.01611-.208-.06933-1.34375-.05419-1.13379-.03906-1.62207v-6.498h1.23144Z" transform="translate(-383.80909 -630.50873)"/><path class="cls-1" d="M412.044,728.85849h-.87548v1.84668h-.58741v-4.19726h.58741v1.82324h.88769l1.31934-1.82324h.6416l-1.49951,2.03222,1.57129,2.165h-.6836Z" transform="translate(-383.80909 -630.50873)"/><path class="cls-1" d="M416.14893,728.60654a2.23262,2.23262,0,1,1,2.23682,2.14648A2.13337,2.13337,0,0,1,416.14893,728.60654Zm3.86182,0a1.6312,1.6312,0,1,0-1.625,1.61328A1.57585,1.57585,0,0,0,420.01075,728.60654Z" transform="translate(-383.80909 -630.50873)"/><path class="cls-1" d="M427.27686,730.70517l-.00586-3.05762-1.51708,2.54786H425.478l-1.51709-2.53028v3.04h-.57569v-4.19726h.4917l1.751,2.95019,1.727-2.95019h.4917l.00586,4.19726Z" transform="translate(-383.80909 -630.50873)"/><path class="cls-1" d="M434.8545,730.70517l-.00586-3.05762-1.51709,2.54786h-.27588l-1.51709-2.53028v3.04h-.57568v-4.19726h.4917l1.751,2.95019,1.72705-2.95019h.4917l.00585,4.19726Z" transform="translate(-383.80909 -630.50873)"/><path class="cls-1" d="M441.58741,730.18369v.52148H438.541v-4.19726h2.96241v.52148h-2.3628v1.28906h2.1045v.50977h-2.1045v1.35547Z" transform="translate(-383.80909 -630.50873)"/><path class="cls-1" d="M447.71925,727.9708c0,.91211-.65967,1.46289-1.75147,1.46289h-1.03711v1.27148h-.59961v-4.19726h1.63672C447.05958,726.50791,447.71925,727.05966,447.71925,727.9708Zm-.6001,0c0-.59961-.40137-.94141-1.16895-.94141h-1.01953v1.88281h1.01953C446.71778,728.9122,447.11915,728.57041,447.11915,727.9708Z" transform="translate(-383.80909 -630.50873)"/><path class="cls-1" d="M453.41309,726.50791v4.19726h-.59375V729.044a3.447,3.447,0,0,1-1.229.25781c-1.02539,0-1.61328-.51562-1.61328-1.43262v-1.36132h.58789v1.29492c0,.624.40186.97168,1.09131.97168a2.84762,2.84762,0,0,0,1.16308-.26367v-2.00293Z" transform="translate(-383.80909 -630.50873)"/><path class="cls-1" d="M459.56934,730.18369v.52148H456.523v-4.19726h2.9624v.52148h-2.36279v1.28906h2.105v.50977h-2.105v1.35547Z" transform="translate(-383.80909 -630.50873)"/><path class="cls-1" d="M461.95313,728.60654a2.123,2.123,0,0,1,2.22461-2.14649,2.075,2.075,0,0,1,1.59522.65332l-.39014.37793a1.555,1.555,0,0,0-1.18115-.498,1.61367,1.61367,0,1,0,0,3.22656,1.56033,1.56033,0,0,0,1.18115-.50391l.39014.37793a2.08332,2.08332,0,0,1-1.60108.65918A2.1214,2.1214,0,0,1,461.95313,728.60654Z" transform="translate(-383.80909 -630.50873)"/><path class="cls-1" d="M469.86573,728.85849h-.87549v1.84668h-.5874v-4.19726h.5874v1.82324h.8877l1.31933-1.82324h.64161l-1.499,2.03222,1.5708,2.165h-.68359Z" transform="translate(-383.80909 -630.50873)"/><path class="cls-1" d="M476.99952,729.65634h-2.231l-.46191,1.04883H473.689l1.90137-4.19726h.59326l1.90723,4.19726H477.461Zm-.21-.48047-.90576-2.05664-.90528,2.05664Z" transform="translate(-383.80909 -630.50873)"/><path class="cls-1" d="M483.49708,726.50791v4.19726h-.58789v-1.22266H481.752a1.29113,1.29113,0,0,1-.16211-.00683l-.83935,1.22949h-.63575l.92969-1.33105a1.32557,1.32557,0,0,1-.92969-1.35547,1.48892,1.48892,0,0,1,1.69727-1.51074Zm-1.69727,2.4707h1.10938v-1.94922H481.836c-.71338,0-1.11524.33594-1.11524.9834C480.72071,728.631,481.08643,728.97861,481.79981,728.97861Z" transform="translate(-383.80909 -630.50873)"/><path class="cls-1" d="M493.63087,726.50791v4.19726h-.59961v-1.87109h-2.41113v1.87109h-.59961v-4.19726h.59961v1.80468h2.41113v-1.80468Z" transform="translate(-383.80909 -630.50873)"/><path class="cls-1" d="M499.78712,730.18369v.52148h-3.04688v-4.19726h2.96289v.52148h-2.36328v1.28906h2.10547v.50977h-2.10547v1.35547Z" transform="translate(-383.80909 -630.50873)"/><path class="cls-1" d="M506.53028,730.18369v1.43945h-.55761v-.918h-3.45411l-.00586.918h-.55761l.00586-1.43945h.2041c.57519-.03614.71289-1.04981.75488-2.32715l.042-1.34863h2.95117v3.67578Zm-3.58008,0h2.36914v-3.1543h-1.84082l-.03027.88184A3.80688,3.80688,0,0,1,502.9502,730.18369Z" transform="translate(-383.80909 -630.50873)"/><path class="cls-1" d="M512.63282,729.55966c0,.71973-.52734,1.14551-1.55957,1.14551h-1.91894v-4.19726H510.96c.91113,0,1.46289.37793,1.46289,1.0791a.95464.95464,0,0,1-.65332.9414A.999.999,0,0,1,512.63282,729.55966Zm-2.88476-1.20507H510.918c.57519,0,.89941-.2334.89941-.6836,0-.44922-.32422-.68945-.89941-.68945h-1.16992Zm2.27929,1.15722c0-.48535-.33593-.70117-.96582-.70117h-1.31347v1.4209h1.31347C511.69142,730.23154,512.02735,730.004,512.02735,729.51181Z" transform="translate(-383.80909 -630.50873)"/><path class="cls-1" d="M515.43653,726.50791h.59375v3.23828l2.48242-3.23828h.55176v4.19726h-.58691v-3.23242l-2.48926,3.23242h-.55176Z" transform="translate(-383.80909 -630.50873)"/><path class="cls-1" d="M525.7002,728.85849h-.79785v1.84668h-.58691v-1.84668h-.80371l-1.17578,1.84668h-.70118l1.38477-2.18262-1.2832-2.01464h.6416l1.12109,1.82324h.81641v-1.82324h.58691v1.82324h.80371l1.12793-1.82324h.6416l-1.2832,2.02636,1.38477,2.1709H526.876Z" transform="translate(-383.80909 -630.50873)"/><path class="cls-1" d="M530.00977,726.50791h.59375v3.23828l2.48243-3.23828h.55175v4.19726h-.58691v-3.23242l-2.48926,3.23242h-.55176Z" transform="translate(-383.80909 -630.50873)"/><path class="cls-1" d="M540.64063,730.70517l-.00683-3.05762-1.5166,2.54786h-.27637l-1.5166-2.53028v3.04h-.57617v-4.19726h.49218l1.751,2.95019,1.72656-2.95019H541.21l.00586,4.19726Z" transform="translate(-383.80909 -630.50873)"/><path class="cls-1" d="M543.97852,728.60654a2.23262,2.23262,0,1,1,2.23731,2.14648A2.13322,2.13322,0,0,1,543.97852,728.60654Zm3.86231,0a1.63145,1.63145,0,1,0-1.625,1.61328A1.57642,1.57642,0,0,0,547.84083,728.60654Z" transform="translate(-383.80909 -630.50873)"/><path class="cls-1" d="M550.87208,728.60654a2.12352,2.12352,0,0,1,2.22461-2.14649,2.07456,2.07456,0,0,1,1.5957.65332l-.38965.37793a1.55671,1.55671,0,0,0-1.18164-.498,1.61368,1.61368,0,1,0,0,3.22656,1.56209,1.56209,0,0,0,1.18164-.50391l.38965.37793a2.08291,2.08291,0,0,1-1.60156.65918A2.122,2.122,0,0,1,550.87208,728.60654Z" transform="translate(-383.80909 -630.50873)"/><path class="cls-1" d="M560.15919,727.02939h-1.43945v3.67578h-.5879v-3.67578h-1.43261v-.52148h3.46Z" transform="translate(-383.80909 -630.50873)"/><path class="cls-1" d="M566.08106,729.296c0,.92969-.60547,1.40918-1.65527,1.40918h-1.7334v-4.19726h.59375v1.46289h1.24707C565.52931,727.9708,566.08106,728.421,566.08106,729.296Zm-.59961.01172c0-.59277-.37793-.86328-1.08007-.86328h-1.11524v1.78711h1.11524C565.09767,730.23154,565.48145,729.91416,565.48145,729.30771Z" transform="translate(-383.80909 -630.50873)"/><path class="cls-1" d="M517.69671,688.3614a.27149.27149,0,0,1-.21716.309.12385.12385,0,0,1-.05847.00836.28592.28592,0,0,1-.26726-.20043c-.37584-1.37806-.69321-2.76443-.97714-4.06731-.08355-.39255-.17541-.78506-.26726-1.186-.2088-.94376-.43431-1.9209-.618-2.88968l-.8185-4.07566-.71824-4.10075c-.4677-2.83126-.83518-5.62908-1.16922-8.25154-.20879-1.77893-.49278-3.57453-.76-5.30335-.15032-.97714-.30065-1.95434-.43431-2.93148a.27628.27628,0,0,1,.54289-.10021c.60135,2.41367,1.14419,4.88576,1.67035,7.28271l.18377.83517c.65141,2.89809,1.16085,5.57067,1.57844,8.19313.40923,2.83957.78507,5.61236,1.10244,8.25986.23387,1.76226.50945,3.55785.78507,5.295C517.40436,686.41543,517.55469,687.38426,517.69671,688.3614Z" transform="translate(-383.80909 -630.50873)"/><path class="cls-1" d="M471.50311,666.77207c.04175,1.637.01667,3.29059-.01672,4.88581l-.00836.56791a49.9684,49.9684,0,0,1-.309,5.44537c-.1253,1.19429-.32573,2.40531-.5178,3.56616-.09186.60972-.19208,1.211-.284,1.82068-.2589,1.72046-.476,3.48272-.65977,5.37023a.288.288,0,0,1-.284.25054.27508.27508,0,0,1-.27557-.2589c-.05847-.93539-.05011-1.87079-.03344-2.74776.00836-.26726.00836-.52617.00836-.79338.00836-.63474.00836-1.2862.05011-1.93761l.13365-2.706.22547-2.71432c.18376-1.85412.45938-3.68315.7266-5.39526.19212-1.1609.33409-2.33848.45938-3.47436.07514-.63469.15033-1.26943.23383-1.91253a.27662.27662,0,0,1,.29234-.23383A.27324.27324,0,0,1,471.50311,666.77207Z" transform="translate(-383.80909 -630.50873)"/><path class="cls-1" d="M480.42279,666.76376c.05847,2.56394.025,4.93587-.09191,7.241-.167,2.48881-.35076,4.91084-.56791,7.21594-.12525,1.53669-.2088,3.11519-.2923,4.63521-.0501.86021-.09185,1.7121-.15032,2.564a.27617.27617,0,0,1-.55125,0c-.09185-1.22774-.12524-2.47214-.15032-3.633,0-.35076-.00836-.70988-.025-1.06064-.01672-.83517-.04175-1.70379-.02508-2.55563l.01672-3.608.11694-3.61633c.10857-2.48881.30065-4.93587.49272-7.22429.15033-1.54506.24224-3.12355.32573-4.65189q.06262-1.27785.15033-2.55569a.28106.28106,0,0,1,.27562-.2589.2764.2764,0,0,1,.27562.26726c.10853,2.16313.15033,4.35965.18372,6.481Z" transform="translate(-383.80909 -630.50873)"/><path class="cls-1" d="M494.21155,661.64412c.07514,3.85851-.06682,7.77549-.20048,11.56717l-.17535,5.16975-.10022,10.02211a.2764.2764,0,0,1-.26726.27562h-.00836a.27979.27979,0,0,1-.27563-.25054c-.20879-1.96269-.35912-3.96709-.50108-5.89634l-.05011-.78507c-.17541-2.255-.33409-4.50161-.4677-6.68141-.37584-5.21154-.53452-9.47092-.50113-13.37954-.00831-2.12969.0501-4.21763.15032-6.69813l.2506-6.68977c.07513-1.57844.09185-3.17366.10857-4.72707,0-.65146.00831-1.30288.01667-1.95434.03344-2.12969.05847-4.41806.03344-6.68141a.27108.27108,0,0,1,.2589-.28393.28411.28411,0,0,1,.29229.24218c.57628,4.66866.82682,9.354,1.019,13.37954l.30065,6.68141Z" transform="translate(-383.80909 -630.50873)"/><path class="cls-1" d="M475.9462,669.48639c.02508,2.4805-.03338,4.50161-.19207,6.34737-.10022,1.39473-.27562,2.80618-.43431,4.17588-.09186.70988-.17535,1.41145-.25054,2.12133-.22546,2.00444-.40087,4.0673-.55119,6.2889a.28248.28248,0,0,1-.284.2589.27469.27469,0,0,1-.27557-.2589c-.07519-1.07741-.08355-2.17149-.09191-3.182,0-.309,0-.618-.00836-.92708-.00831-.73491-.01667-1.50331.01672-2.25494l.06683-3.157.17541-3.1653c.142-2.16313.38415-4.30118.60966-6.30557.17535-1.353.28393-2.731.39251-4.059.05847-.74327.11693-1.495.19212-2.23827.01667-.142.142-.28393.28393-.25054a.26913.26913,0,0,1,.26727.26726c.07518,1.90417.08349,3.84179.08349,5.70427Z" transform="translate(-383.80909 -630.50873)"/><path class="cls-1" d="M462.78387,674.02975c-.02508,1.1108-.1253,2.23-.22551,3.30732l-.03339.38419a23.00857,23.00857,0,0,1-.53453,3.65808,21.99715,21.99715,0,0,1-.62638,2.19652c-.142.44262-.284.89359-.40923,1.34462-.35912,1.31954-.65146,2.47209-.877,3.54114a.2764.2764,0,0,1-.26722.21715h-.02508a.2935.2935,0,0,1-.2589-.26726,26.58529,26.58529,0,0,1,.2589-3.71654l.24219-1.82068.35081-1.81232a29.2625,29.2625,0,0,1,.80173-3.0818l.142-.48442c.334-1.06905.59294-2.17144.84349-3.23213l.07518-.30065a.27975.27975,0,0,1,.30066-.21715A.274.274,0,0,1,462.78387,674.02975Z" transform="translate(-383.80909 -630.50873)"/><path class="cls-1" d="M467.14346,670.39675c.00836,1.37806-.05846,2.75607-.11693,4.09239l-.025.476a36.02717,36.02717,0,0,1-.41759,4.55172c-.15868,1.00222-.37584,2.00445-.593,2.97323-.10858.50113-.22547.99386-.32573,1.495-.29229,1.42812-.54284,2.88131-.77671,4.45981a.27.27,0,0,1-.26726.23387h-.01667a.28085.28085,0,0,1-.26727-.26726c-.03338-.78507-.00835-1.57014.025-2.30509.00836-.21716.01672-.43431.02508-.65978.01672-.52616.04175-1.08576.09186-1.6286l.18377-2.255.29229-2.26335c.21715-1.54506.53452-3.06508.83517-4.48489.21716-.95207.37584-1.93762.53453-2.88132.0835-.52617.17535-1.05233.26726-1.58686a.29065.29065,0,0,1,.30065-.22551A.27979.27979,0,0,1,467.14346,670.39675Z" transform="translate(-383.80909 -630.50873)"/><path class="cls-1" d="M498.47929,674.39723l-.05847,4.75215.10858,9.25377a.27477.27477,0,0,1-.2589.27562h-.01672a.27252.27252,0,0,1-.27562-.24223c-.23383-1.82068-.40087-3.67475-.56792-5.47039l-.618-6.84846c-.451-4.80226-.67649-8.71924-.7266-12.34388-.05847-2.72268-.00836-5.50383.04175-8.18471.02508-1.39479.05847-2.78116.06683-4.17589.04175-1.44489.01672-2.91475,0-4.33456-.00836-.60972-.00836-1.21938-.01672-1.8374-.01667-1.96264-.03339-4.0673-.10022-6.1636a.27461.27461,0,0,1,.25054-.284.28236.28236,0,0,1,.30071.24224c.60966,4.29281.93539,8.61066,1.18593,12.31885l.40923,6.1636.23387,6.17191C498.57951,667.25648,498.5294,670.88117,498.47929,674.39723Z" transform="translate(-383.80909 -630.50873)"/><path class="cls-1" d="M507.86667,684.72835q.13778,1.82907.25054,3.65808a.2771.2771,0,0,1-.25054.29234h-.02508a.27122.27122,0,0,1-.27558-.23387c-.5178-3.04-.95211-6.13853-1.37806-9.14519l-.15032-1.069c-.57628-3.99217-.94376-7.24932-1.15255-10.2643-.17541-2.2717-.26726-4.59347-.35076-6.84009-.04175-1.16091-.08355-2.31346-.142-3.47436-.03343-1.211-.11693-2.4387-.20048-3.633q-.05008-.75171-.10022-1.50331c-.10021-1.637-.21715-3.39917-.36748-5.13635a.26622.26622,0,0,1,.23388-.30065.27276.27276,0,0,1,.309.22546c.3424,1.72882.6013,3.48272.82681,5.11127.07519.50114.15033,1.00223.21716,1.51172.1754,1.17758.35912,2.397.48441,3.60792l.60967,5.11127.47605,5.14472c.29229,3.51611.45934,7.02381.60131,10.306C507.55765,680.31029,507.71634,682.55692,507.86667,684.72835Z" transform="translate(-383.80909 -630.50873)"/><path class="cls-1" d="M484.891,664.03271c.10022,2.898.10858,5.554.02508,8.143-.1253,2.85629-.27562,5.51215-.451,8.12625-.10858,1.73718-.167,3.51611-.22546,5.22821-.03344.96048-.06683,1.9209-.10858,2.88137a.26913.26913,0,0,1-.26726.26726h-.00836a.27379.27379,0,0,1-.27562-.25054c-.11694-1.39478-.167-2.78115-.20044-4.084-.01672-.39256-.03339-.78507-.04175-1.17763-.03338-.94375-.07518-1.92926-.07518-2.88968l-.04175-4.059.05847-4.06731c.07518-2.79782.23387-5.55389.3925-8.13461.1253-1.74549.18377-3.516.24224-5.22821.03339-.96042.06683-1.92089.11693-2.88967a.275.275,0,0,1,.27558-.25891.26931.26931,0,0,1,.27562.25891c.142,2.43034.21715,4.90248.284,7.29107Z" transform="translate(-383.80909 -630.50873)"/><path class="cls-1" d="M489.79344,645.18278l.20043,7.20758-.00831,7.20757c.00831,4.15916-.22551,8.38515-.44266,12.46918l-.29229,5.54558-.309,10.79882a.27464.27464,0,0,1-.05846.13361c-.00836.01672-.00836.0418-.01672.0501a.27193.27193,0,0,1-.19208.08355H488.666a.23329.23329,0,0,1-.18376-.07519.27784.27784,0,0,1-.09186-.17535c0-.02508-.00836-.05011-.00836-.06683-.18371-2.12138-.309-4.2761-.426-6.364l-.04175-.78506c-.142-2.40532-.26726-4.82735-.37584-7.19922-.309-5.62077-.40086-10.20588-.28393-14.42351.03339-2.43034.167-4.90248.30065-7.20757l.40087-7.20758c.11694-1.687.15869-3.41584.2088-5.07788.01672-.70152.0418-1.4114.05846-2.113.07519-2.29674.15033-4.76052.16705-7.19922a.28106.28106,0,0,1,.2589-.27562.28421.28421,0,0,1,.29234.25054C489.47607,635.79541,489.66819,640.84821,489.79344,645.18278Z" transform="translate(-383.80909 -630.50873)"/><path class="cls-1" d="M512.56035,685.08753c.1253,1.09407.24218,2.18815.3424,3.29059a.27558.27558,0,0,1-.23382.30065h-.04175a.2764.2764,0,0,1-.26726-.21715c-.55956-2.731-1.05233-5.51214-1.52-8.2098l-.1754-.96878c-.64306-3.57458-1.07736-6.50606-1.36965-9.22038-.23388-2.03783-.39256-4.12577-.54289-6.14688-.0835-1.044-.15869-2.08794-.25054-3.14027-.25055-2.96487-.55956-5.99656-.94376-9.24541a.26671.26671,0,0,1,.22552-.309.27881.27881,0,0,1,.31732.20879c.35917,1.54511.6431,3.1236.902,4.59347.07519.44267.15869.89365.24224,1.33631.19207,1.069.3925,2.17144.55119,3.25716l.71824,4.59347.593,4.62691c.37584,3.14858.64311,6.31393.88529,9.27879C512.1344,681.11208,512.35156,683.13319,512.56035,685.08753Z" transform="translate(-383.80909 -630.50873)"/><path class="cls-1" d="M503.173,684.386q.0877,2.00441.15032,4.00884a.288.288,0,0,1-.25054.284h-.02508a.27222.27222,0,0,1-.27557-.23387c-.25059-1.67035-.451-3.36573-.6431-5.0027l-.70993-6.26382c-.51781-4.393-.81846-7.98428-.9437-11.30827-.11694-2.49717-.13366-5.04449-.15038-7.51658-.00831-1.26949-.01667-2.54728-.04175-3.81677,0-1.33631-.05011-2.68929-.10022-3.99216-.01672-.55956-.04174-1.11075-.05846-1.67035-.05847-1.7956-.12525-3.73322-.24219-5.6458a.277.277,0,0,1,.25055-.29229.25662.25662,0,0,1,.30065.23387c.593,3.53278.97719,7.06556,1.36134,11.27488l.50949,5.63744.35912,5.66247c.2088,3.26556.25055,6.58955.2923,9.81332l.01671,1.52C502.97254,679.51686,503.08112,681.989,503.173,684.386Z" transform="translate(-383.80909 -630.50873)"/></svg>