<svg id="Слой_6" data-name="Слой 6" xmlns="http://www.w3.org/2000/svg" viewBox="0 0 358.38926 220.49848"><defs><style>.cls-1{fill:none;}.cls-2{fill:#e0b77f;}</style></defs><title>Investment corporation</title><rect class="cls-1" width="358.38926" height="220.49848"/><path class="cls-2" d="M383.80909,455.46054V444.13779h1.3169v11.32275Z" transform="translate(-309.41973 -310.64864)"/><path class="cls-2" d="M397.07618,455.46054h-1.50244l-6.18848-9.50293h-.06152q.12378,1.67286.12353,3.0669v6.436h-1.21582V444.13779h1.48731l6.17236,9.46387h.062q-.01537-.20874-.06982-1.34375-.05419-1.13452-.03857-1.62256v-6.49756h1.23144Z" transform="translate(-309.41973 -310.64864)"/><path class="cls-2" d="M406.65626,444.13779h1.41748l-4.08154,11.32275h-1.30127l-4.05811-11.32275h1.394l2.60206,7.32666a20.505,20.505,0,0,1,.71289,2.45508,20.396,20.396,0,0,1,.728-2.502Z" transform="translate(-309.41973 -310.64864)"/><path class="cls-2" d="M415.94239,455.46054h-6.312V444.13779h6.312v1.16943h-4.99512v3.64746h4.69336v1.16211h-4.69336v4.16651h4.99512Z" transform="translate(-309.41973 -310.64864)"/><path class="cls-2" d="M424.84132,452.44785a2.77763,2.77763,0,0,1-1.08448,2.33105,4.70043,4.70043,0,0,1-2.94287.83643,7.37655,7.37655,0,0,1-3.09814-.51856v-1.27051a8.16589,8.16589,0,0,0,1.51807.46485,7.9739,7.9739,0,0,0,1.62646.17041,3.28288,3.28288,0,0,0,1.98291-.49951,1.63966,1.63966,0,0,0,.666-1.39014,1.787,1.787,0,0,0-.23633-.96436,2.19879,2.19879,0,0,0-.79-.69335,11.08331,11.08331,0,0,0-1.68457-.72022,5.36782,5.36782,0,0,1-2.25733-1.33984,2.9558,2.9558,0,0,1-.67773-2.02149,2.51347,2.51347,0,0,1,.9834-2.083,4.08528,4.08528,0,0,1,2.602-.77441,7.67641,7.67641,0,0,1,3.106.61914l-.41065,1.14649a7.015,7.015,0,0,0-2.72607-.58838,2.64049,2.64049,0,0,0-1.63428.44873,1.48172,1.48172,0,0,0-.58838,1.24707,1.91167,1.91167,0,0,0,.2168.96435,2.04106,2.04106,0,0,0,.73193.68946,9.09451,9.09451,0,0,0,1.57617.69287,6.24011,6.24011,0,0,1,2.45118,1.36328A2.68236,2.68236,0,0,1,424.84132,452.44785Z" transform="translate(-309.41973 -310.64864)"/><path class="cls-2" d="M430.6421,455.46054h-1.3169V445.30722h-3.58545v-1.16943H434.228v1.16943H430.6421Z" transform="translate(-309.41973 -310.64864)"/><path class="cls-2" d="M440.94239,455.46054l-3.84131-10.03711h-.062q.10841,1.19238.1084,2.83448v7.20263h-1.21582V444.13779h1.98291L441.5,453.47763h.062l3.61719-9.33984H447.146v11.32275h-1.3164v-7.29541q0-1.25463.1084-2.72656h-.062l-3.87256,10.022Z" transform="translate(-309.41973 -310.64864)"/><path class="cls-2" d="M456.564,455.46054h-6.312V444.13779h6.312v1.16943h-4.99511v3.64746h4.69336v1.16211h-4.69336v4.16651H456.564Z" transform="translate(-309.41973 -310.64864)"/><path class="cls-2" d="M467.918,455.46054h-1.50244l-6.18848-9.50293h-.06152q.12378,1.67286.12353,3.0669v6.436h-1.21582V444.13779h1.48731l6.17236,9.46387h.062q-.01538-.20874-.06982-1.34375-.05421-1.13452-.03858-1.62256v-6.49756H467.918Z" transform="translate(-309.41973 -310.64864)"/><path class="cls-2" d="M474.51661,455.46054h-1.31689V445.30722h-3.58545v-1.16943h8.48828v1.16943h-3.58594Z" transform="translate(-309.41973 -310.64864)"/><path class="cls-2" d="M488.77442,445.15244a3.70208,3.70208,0,0,0-2.94677,1.24267,5.01416,5.01416,0,0,0-1.08057,3.40381,5.1127,5.1127,0,0,0,1.042,3.43506,3.70251,3.70251,0,0,0,2.97022,1.21191,10.1688,10.1688,0,0,0,2.70361-.42578v1.15381a8.328,8.328,0,0,1-2.90527.44141,4.91313,4.91313,0,0,1-3.86084-1.51807,6.25183,6.25183,0,0,1-1.35889-4.31348,6.80387,6.80387,0,0,1,.6543-3.06689,4.69536,4.69536,0,0,1,1.88964-2.0293,5.71963,5.71963,0,0,1,2.90821-.7124,7.02437,7.02437,0,0,1,3.11426.65039l-.5586,1.13086A5.99948,5.99948,0,0,0,488.77442,445.15244Z" transform="translate(-309.41973 -310.64864)"/><path class="cls-2" d="M503.76075,449.78378a6.23062,6.23062,0,0,1-1.375,4.27491,4.83071,4.83071,0,0,1-3.82129,1.55664,4.8956,4.8956,0,0,1-3.86133-1.5293,6.28442,6.28442,0,0,1-1.35937-4.31787,6.20726,6.20726,0,0,1,1.36328-4.28662,4.9285,4.9285,0,0,1,3.87207-1.522,4.82147,4.82147,0,0,1,3.81055,1.54882A6.22724,6.22724,0,0,1,503.76075,449.78378Zm-9.02246,0a5.37256,5.37256,0,0,0,.97949,3.48877,3.47659,3.47659,0,0,0,2.84668,1.189,3.44169,3.44169,0,0,0,2.8418-1.18506,6.79091,6.79091,0,0,0,.00391-6.9585,3.427,3.427,0,0,0-2.83106-1.18115,3.49376,3.49376,0,0,0-2.86133,1.189A5.31687,5.31687,0,0,0,494.73829,449.78378Z" transform="translate(-309.41973 -310.64864)"/><path class="cls-2" d="M507.60157,450.75156v4.709h-1.3164V444.13779h3.10546a4.8906,4.8906,0,0,1,3.07911.79736,2.89441,2.89441,0,0,1,.99511,2.40088,3.00706,3.00706,0,0,1-2.27734,3.03613l3.07519,5.08838h-1.55664l-2.74218-4.709Zm0-1.13037h1.80469a3.11366,3.11366,0,0,0,2.04492-.5542,2.06,2.06,0,0,0,.65039-1.66114,1.89077,1.89077,0,0,0-.66211-1.61865,3.59074,3.59074,0,0,0-2.126-.4956h-1.71192Z" transform="translate(-309.41973 -310.64864)"/><path class="cls-2" d="M523.27052,447.4371a3.17084,3.17084,0,0,1-1.17383,2.64454,5.31421,5.31421,0,0,1-3.35742.92578h-1.332v4.45312h-1.31641V444.13779h2.93555Q523.27,444.13779,523.27052,447.4371Zm-5.86328,2.43946h1.18554a4.404,4.404,0,0,0,2.53223-.56543,2.08348,2.08348,0,0,0,.78223-1.812,1.95447,1.95447,0,0,0-.73536-1.67334,3.84916,3.84916,0,0,0-2.293-.54981h-1.47168Z" transform="translate(-309.41973 -310.64864)"/><path class="cls-2" d="M535.46778,449.78378a6.23062,6.23062,0,0,1-1.375,4.27491,4.83071,4.83071,0,0,1-3.82129,1.55664,4.89558,4.89558,0,0,1-3.86132-1.5293,6.28443,6.28443,0,0,1-1.35938-4.31787,6.20726,6.20726,0,0,1,1.36328-4.28662,4.9285,4.9285,0,0,1,3.87207-1.522,4.82147,4.82147,0,0,1,3.81055,1.54882A6.22724,6.22724,0,0,1,535.46778,449.78378Zm-9.02246,0a5.37256,5.37256,0,0,0,.97949,3.48877,3.47661,3.47661,0,0,0,2.84668,1.189,3.44169,3.44169,0,0,0,2.8418-1.18506,6.79091,6.79091,0,0,0,.00391-6.9585,3.427,3.427,0,0,0-2.83106-1.18115,3.49377,3.49377,0,0,0-2.86133,1.189A5.31687,5.31687,0,0,0,526.44532,449.78378Z" transform="translate(-309.41973 -310.64864)"/><path class="cls-2" d="M539.30958,450.75156v4.709h-1.31641V444.13779h3.10547a4.89057,4.89057,0,0,1,3.0791.79736,2.89439,2.89439,0,0,1,.99512,2.40088,3.00706,3.00706,0,0,1-2.27734,3.03613l3.07519,5.08838h-1.55664l-2.74219-4.709Zm0-1.13037h1.80469a3.1137,3.1137,0,0,0,2.04492-.5542,2.06,2.06,0,0,0,.65039-1.66114,1.89077,1.89077,0,0,0-.66211-1.61865,3.59078,3.59078,0,0,0-2.126-.4956h-1.71191Z" transform="translate(-309.41973 -310.64864)"/><path class="cls-2" d="M554.915,455.46054l-1.40918-3.60156h-4.53809l-1.39453,3.60156h-1.332l4.47656-11.36963h1.10742l4.45313,11.36963Zm-1.81934-4.78613-1.31738-3.50879q-.25488-.66577-.52637-1.63379a14.72539,14.72539,0,0,1-.4873,1.63379l-1.333,3.50879Z" transform="translate(-309.41973 -310.64864)"/><path class="cls-2" d="M561.32032,455.46054h-1.3164V445.30722H556.418v-1.16943h8.48828v1.16943h-3.58594Z" transform="translate(-309.41973 -310.64864)"/><path class="cls-2" d="M566.60938,455.46054V444.13779h1.31641v11.32275Z" transform="translate(-309.41973 -310.64864)"/><path class="cls-2" d="M580.86036,449.78378a6.23062,6.23062,0,0,1-1.375,4.27491,4.83073,4.83073,0,0,1-3.82129,1.55664,4.8956,4.8956,0,0,1-3.86133-1.5293,6.28442,6.28442,0,0,1-1.35937-4.31787,6.20726,6.20726,0,0,1,1.36328-4.28662,4.9285,4.9285,0,0,1,3.87207-1.522,4.82147,4.82147,0,0,1,3.81055,1.54882A6.22724,6.22724,0,0,1,580.86036,449.78378Zm-9.02246,0a5.37256,5.37256,0,0,0,.97949,3.48877,3.47659,3.47659,0,0,0,2.84668,1.189,3.44169,3.44169,0,0,0,2.8418-1.18506,6.79088,6.79088,0,0,0,.0039-6.9585,3.427,3.427,0,0,0-2.83105-1.18115,3.49376,3.49376,0,0,0-2.86133,1.189A5.31687,5.31687,0,0,0,571.8379,449.78378Z" transform="translate(-309.41973 -310.64864)"/><path class="cls-2" d="M592.2295,455.46054h-1.50293l-6.1875-9.50293h-.0625q.12451,1.67286.124,3.0669v6.436h-1.21582V444.13779h1.48731l6.17285,9.46387h.06152q-.01611-.20874-.06933-1.34375-.05419-1.13452-.03906-1.62256v-6.49756h1.23144Z" transform="translate(-309.41973 -310.64864)"/><path class="cls-2" d="M412.044,468.36h-.87548v1.84716h-.58741v-4.19775h.58741v1.82324h.88769l1.31934-1.82324h.6416l-1.49951,2.03272,1.57129,2.165h-.6836Z" transform="translate(-309.41973 -310.64864)"/><path class="cls-2" d="M416.14893,468.10849a2.23262,2.23262,0,1,1,2.23682,2.14649A2.13375,2.13375,0,0,1,416.14893,468.10849Zm3.86182,0a1.63121,1.63121,0,1,0-1.625,1.61279A1.57585,1.57585,0,0,0,420.01075,468.10849Z" transform="translate(-309.41973 -310.64864)"/><path class="cls-2" d="M427.27686,470.20712l-.00586-3.0581-1.51708,2.54834H425.478L423.961,467.1666v3.04052h-.57569v-4.19775h.4917l1.751,2.9502,1.727-2.9502h.4917l.00586,4.19775Z" transform="translate(-309.41973 -310.64864)"/><path class="cls-2" d="M434.8545,470.20712l-.00586-3.0581-1.51709,2.54834h-.27588l-1.51709-2.53076v3.04052h-.57568v-4.19775h.4917l1.751,2.9502,1.72705-2.9502h.4917l.00585,4.19775Z" transform="translate(-309.41973 -310.64864)"/><path class="cls-2" d="M441.58741,469.68564v.52148H438.541v-4.19775h2.96241v.522h-2.3628v1.28907h2.1045v.50976h-2.1045v1.35547Z" transform="translate(-309.41973 -310.64864)"/><path class="cls-2" d="M447.71925,467.47275c0,.91162-.65967,1.46289-1.75147,1.46289h-1.03711v1.27148h-.59961v-4.19775h1.63672C447.05958,466.00937,447.71925,466.56113,447.71925,467.47275Zm-.6001,0c0-.59961-.40137-.94141-1.16895-.94141h-1.01953v1.88282h1.01953C446.71778,468.41416,447.11915,468.07236,447.11915,467.47275Z" transform="translate(-309.41973 -310.64864)"/><path class="cls-2" d="M453.41309,466.00937v4.19775h-.59375V468.546a3.447,3.447,0,0,1-1.229.25781c-1.02539,0-1.61328-.51562-1.61328-1.4331v-1.36133h.58789v1.29541c0,.62354.40186.97119,1.09131.97119a2.84746,2.84746,0,0,0,1.16308-.26367v-2.00293Z" transform="translate(-309.41973 -310.64864)"/><path class="cls-2" d="M459.56934,469.68564v.52148H456.523v-4.19775h2.9624v.522h-2.36279v1.28907h2.105v.50976h-2.105v1.35547Z" transform="translate(-309.41973 -310.64864)"/><path class="cls-2" d="M461.95313,468.10849a2.12306,2.12306,0,0,1,2.22461-2.147,2.07362,2.07362,0,0,1,1.59522.65381l-.39014.37744a1.55448,1.55448,0,0,0-1.18115-.49756,1.61343,1.61343,0,1,0,0,3.22607,1.5599,1.5599,0,0,0,1.18115-.50341l.39014.37744a2.082,2.082,0,0,1-1.60108.65967A2.12141,2.12141,0,0,1,461.95313,468.10849Z" transform="translate(-309.41973 -310.64864)"/><path class="cls-2" d="M469.86573,468.36h-.87549v1.84716h-.5874v-4.19775h.5874v1.82324h.8877l1.31933-1.82324h.64161l-1.499,2.03272,1.5708,2.165h-.68359Z" transform="translate(-309.41973 -310.64864)"/><path class="cls-2" d="M476.99952,469.15781h-2.231l-.46191,1.04931H473.689l1.90137-4.19775h.59326l1.90723,4.19775H477.461Zm-.21-.48-.90576-2.05664-.90528,2.05664Z" transform="translate(-309.41973 -310.64864)"/><path class="cls-2" d="M483.49708,466.00937v4.19775h-.58789V468.984H481.752a1.388,1.388,0,0,1-.16211-.00635l-.83935,1.22949h-.63575l.92969-1.331a1.32556,1.32556,0,0,1-.92969-1.35547,1.489,1.489,0,0,1,1.69727-1.51123Zm-1.69727,2.4707h1.10938v-1.94873H481.836c-.71338,0-1.11524.33545-1.11524.9834C480.72071,468.13242,481.08643,468.48007,481.79981,468.48007Z" transform="translate(-309.41973 -310.64864)"/><path class="cls-2" d="M493.63087,466.00937v4.19775h-.59961V468.336h-2.41113v1.87109h-.59961v-4.19775h.59961v1.80518h2.41113v-1.80518Z" transform="translate(-309.41973 -310.64864)"/><path class="cls-2" d="M499.78712,469.68564v.52148h-3.04688v-4.19775h2.96289v.522h-2.36328v1.28907h2.10547v.50976h-2.10547v1.35547Z" transform="translate(-309.41973 -310.64864)"/><path class="cls-2" d="M506.53028,469.68564v1.439h-.55761v-.91748h-3.45411l-.00586.91748h-.55761l.00586-1.439h.2041c.57519-.03613.71289-1.0498.75488-2.32715l.042-1.34912h2.95117v3.67627Zm-3.58008,0h2.36914v-3.1543h-1.84082l-.03027.88135A3.80867,3.80867,0,0,1,502.9502,469.68564Z" transform="translate(-309.41973 -310.64864)"/><path class="cls-2" d="M512.63282,469.06162c0,.71972-.52734,1.1455-1.55957,1.1455h-1.91894v-4.19775H510.96c.91113,0,1.46289.37793,1.46289,1.07959a.9555.9555,0,0,1-.65332.94141A.99862.99862,0,0,1,512.63282,469.06162Zm-2.88476-1.20508H510.918c.57519,0,.89941-.23389.89941-.6836s-.32422-.68994-.89941-.68994h-1.16992Zm2.27929,1.15722c0-.48584-.33593-.70166-.96582-.70166h-1.31347v1.42139h1.31347C511.69142,469.73349,512.02735,469.50546,512.02735,469.01376Z" transform="translate(-309.41973 -310.64864)"/><path class="cls-2" d="M515.43653,466.00937h.59375v3.23828l2.48242-3.23828h.55176v4.19775h-.58691V466.9747l-2.48926,3.23242h-.55176Z" transform="translate(-309.41973 -310.64864)"/><path class="cls-2" d="M525.7002,468.36h-.79785v1.84716h-.58691V468.36h-.80371l-1.17578,1.84716h-.70118l1.38477-2.18261-1.2832-2.01514h.6416l1.12109,1.82324h.81641v-1.82324h.58691v1.82324h.80371l1.12793-1.82324h.6416l-1.2832,2.02686,1.38477,2.17089H526.876Z" transform="translate(-309.41973 -310.64864)"/><path class="cls-2" d="M530.00977,466.00937h.59375v3.23828l2.48243-3.23828h.55175v4.19775h-.58691V466.9747l-2.48926,3.23242h-.55176Z" transform="translate(-309.41973 -310.64864)"/><path class="cls-2" d="M540.64063,470.20712l-.00683-3.0581-1.5166,2.54834h-.27637l-1.5166-2.53076v3.04052h-.57617v-4.19775h.49218l1.751,2.9502,1.72656-2.9502H541.21l.00586,4.19775Z" transform="translate(-309.41973 -310.64864)"/><path class="cls-2" d="M543.97852,468.10849a2.23262,2.23262,0,1,1,2.23731,2.14649A2.1336,2.1336,0,0,1,543.97852,468.10849Zm3.86231,0a1.63146,1.63146,0,1,0-1.625,1.61279A1.57642,1.57642,0,0,0,547.84083,468.10849Z" transform="translate(-309.41973 -310.64864)"/><path class="cls-2" d="M550.87208,468.10849a2.12362,2.12362,0,0,1,2.22461-2.147,2.07321,2.07321,0,0,1,1.5957.65381l-.38965.37744a1.55623,1.55623,0,0,0-1.18164-.49756,1.61344,1.61344,0,1,0,0,3.22607,1.56166,1.56166,0,0,0,1.18164-.50341l.38965.37744a2.08156,2.08156,0,0,1-1.60156.65967A2.122,2.122,0,0,1,550.87208,468.10849Z" transform="translate(-309.41973 -310.64864)"/><path class="cls-2" d="M560.15919,466.53134h-1.43945v3.67578h-.5879v-3.67578h-1.43261v-.522h3.46Z" transform="translate(-309.41973 -310.64864)"/><path class="cls-2" d="M566.08106,468.79794c0,.9292-.60547,1.40918-1.65527,1.40918h-1.7334v-4.19775h.59375v1.46338h1.24707C565.52931,467.47275,566.08106,467.92246,566.08106,468.79794Zm-.59961.01172c0-.59326-.37793-.86328-1.08007-.86328h-1.11524v1.78711h1.11524C565.09767,469.73349,565.48145,469.41562,565.48145,468.80966Z" transform="translate(-309.41973 -310.64864)"/><path class="cls-2" d="M517.69671,427.86292a.27149.27149,0,0,1-.21716.309.12385.12385,0,0,1-.05847.00836.28591.28591,0,0,1-.26726-.20043c-.37584-1.37806-.69321-2.76443-.97714-4.0673-.08355-.39256-.17541-.78507-.26726-1.186-.2088-.94375-.43431-1.9209-.618-2.88968l-.8185-4.07566-.71824-4.10075c-.4677-2.83126-.83518-5.62908-1.16922-8.25154-.20879-1.77893-.49278-3.57453-.76-5.30335-.15032-.97714-.30065-1.95434-.43431-2.93148a.27628.27628,0,0,1,.54289-.10021c.60135,2.41367,1.14419,4.88576,1.67035,7.28271l.18377.83517c.65141,2.89809,1.16085,5.57067,1.57844,8.19313.40923,2.83957.78507,5.61236,1.10244,8.25986.23387,1.76226.50945,3.55785.78507,5.295C517.40436,425.917,517.55469,426.88578,517.69671,427.86292Z" transform="translate(-309.41973 -310.64864)"/><path class="cls-2" d="M471.50311,406.27359c.04175,1.637.01667,3.29059-.01672,4.88581l-.00836.56791a49.9684,49.9684,0,0,1-.309,5.44537c-.1253,1.19429-.32573,2.40531-.5178,3.56616-.09186.60972-.19208,1.211-.284,1.82068-.2589,1.72046-.476,3.48272-.65977,5.37023a.288.288,0,0,1-.284.25054.27508.27508,0,0,1-.27557-.2589c-.05847-.93539-.05011-1.87079-.03344-2.74776.00836-.26726.00836-.52617.00836-.79338.00836-.63474.00836-1.2862.05011-1.93761l.13365-2.706.22547-2.71432c.18376-1.85412.45938-3.68315.7266-5.39526.19212-1.1609.33409-2.33848.45938-3.47436.07514-.63469.15033-1.26943.23383-1.91253a.27661.27661,0,0,1,.29234-.23382A.27322.27322,0,0,1,471.50311,406.27359Z" transform="translate(-309.41973 -310.64864)"/><path class="cls-2" d="M480.42279,406.26528c.05847,2.56394.025,4.93587-.09191,7.241-.167,2.48881-.35076,4.91084-.56791,7.21594-.12525,1.53669-.2088,3.11519-.2923,4.63521-.0501.86021-.09185,1.7121-.15032,2.564a.27617.27617,0,0,1-.55125,0c-.09185-1.22773-.12524-2.47214-.15032-3.633,0-.35076-.00836-.70988-.025-1.06064-.01672-.83517-.04175-1.70379-.02508-2.55563l.01672-3.608.11694-3.61633c.10857-2.48881.30065-4.93587.49272-7.22429.15033-1.54506.24224-3.12355.32573-4.65189q.06262-1.27784.15033-2.55569a.28106.28106,0,0,1,.27562-.2589.2764.2764,0,0,1,.27562.26726c.10853,2.16313.15033,4.35965.18372,6.481Z" transform="translate(-309.41973 -310.64864)"/><path class="cls-2" d="M494.21155,401.14564c.07514,3.85851-.06682,7.77549-.20048,11.56717l-.17535,5.16975-.10022,10.02211a.2764.2764,0,0,1-.26726.27562h-.00836a.27979.27979,0,0,1-.27563-.25054c-.20879-1.96269-.35912-3.96709-.50108-5.89634l-.05011-.78507c-.17541-2.255-.33409-4.50161-.4677-6.68141-.37584-5.21154-.53452-9.47092-.50113-13.37954-.00831-2.12969.0501-4.21763.15032-6.69813l.2506-6.68977c.07513-1.57844.09185-3.17366.10857-4.72707,0-.65146.00831-1.30288.01667-1.95434.03344-2.12969.05847-4.41806.03344-6.68141a.27108.27108,0,0,1,.2589-.28393.28411.28411,0,0,1,.29229.24218c.57628,4.66866.82682,9.354,1.019,13.37954l.30065,6.68141Z" transform="translate(-309.41973 -310.64864)"/><path class="cls-2" d="M475.9462,408.98791c.02508,2.4805-.03338,4.50161-.19207,6.34737-.10022,1.39473-.27562,2.80618-.43431,4.17588-.09186.70988-.17535,1.41145-.25054,2.12133-.22546,2.00444-.40087,4.0673-.55119,6.2889a.28248.28248,0,0,1-.284.2589.27469.27469,0,0,1-.27557-.2589c-.07519-1.07741-.08355-2.17149-.09191-3.182,0-.309,0-.618-.00836-.92708-.00831-.73491-.01667-1.50331.01672-2.25494l.06683-3.157.17541-3.1653c.142-2.16313.38415-4.30118.60966-6.30557.17535-1.353.28393-2.731.39251-4.059.05847-.74327.11693-1.495.19212-2.23827.01667-.142.142-.28393.28393-.25054a.26913.26913,0,0,1,.26727.26726c.07518,1.90418.08349,3.84179.08349,5.70427Z" transform="translate(-309.41973 -310.64864)"/><path class="cls-2" d="M462.78387,413.53127c-.02508,1.1108-.1253,2.23-.22551,3.30732l-.03339.3842a23.00861,23.00861,0,0,1-.53453,3.65807,21.99715,21.99715,0,0,1-.62638,2.19652c-.142.44262-.284.89359-.40923,1.34462-.35912,1.31954-.65146,2.47209-.877,3.54114a.2764.2764,0,0,1-.26722.21715h-.02508a.2935.2935,0,0,1-.2589-.26726,26.5854,26.5854,0,0,1,.2589-3.71654l.24219-1.82068.35081-1.81232a29.2625,29.2625,0,0,1,.80173-3.0818l.142-.48442c.334-1.06905.59294-2.17144.84349-3.23213l.07518-.30065a.27975.27975,0,0,1,.30066-.21715A.274.274,0,0,1,462.78387,413.53127Z" transform="translate(-309.41973 -310.64864)"/><path class="cls-2" d="M467.14346,409.89827c.00836,1.37807-.05846,2.75608-.11693,4.09239l-.025.476a36.02717,36.02717,0,0,1-.41759,4.55172c-.15868,1.00223-.37584,2.00445-.593,2.97323-.10858.50114-.22547.99386-.32573,1.495-.29229,1.42812-.54284,2.88131-.77671,4.45981a.27.27,0,0,1-.26726.23387h-.01667a.28085.28085,0,0,1-.26727-.26726c-.03338-.78507-.00835-1.57013.025-2.30509.00836-.21716.01672-.43431.02508-.65977.01672-.52617.04175-1.08577.09186-1.62861l.18377-2.255.29229-2.26335c.21715-1.54506.53452-3.06508.83517-4.48489.21716-.95206.37584-1.93762.53453-2.88132.0835-.52616.17535-1.05233.26726-1.58685a.29065.29065,0,0,1,.30065-.22552A.27979.27979,0,0,1,467.14346,409.89827Z" transform="translate(-309.41973 -310.64864)"/><path class="cls-2" d="M498.47929,413.89875l-.05847,4.75215.10858,9.25377a.27477.27477,0,0,1-.2589.27562h-.01672a.27252.27252,0,0,1-.27562-.24223c-.23383-1.82068-.40087-3.67475-.56792-5.47039l-.618-6.84846c-.451-4.80226-.67649-8.71924-.7266-12.34388-.05847-2.72268-.00836-5.50383.04175-8.18471.02508-1.39479.05847-2.78116.06683-4.17589.04175-1.44488.01672-2.91475,0-4.33456-.00836-.60972-.00836-1.21938-.01672-1.8374-.01667-1.96264-.03339-4.0673-.10022-6.1636a.27461.27461,0,0,1,.25054-.284.28236.28236,0,0,1,.30071.24224c.60966,4.29282.93539,8.61066,1.18593,12.31885l.40923,6.1636.23387,6.17191C498.57951,406.758,498.5294,410.38269,498.47929,413.89875Z" transform="translate(-309.41973 -310.64864)"/><path class="cls-2" d="M507.86667,424.22988q.13778,1.82906.25054,3.65807a.2771.2771,0,0,1-.25054.29234h-.02508a.27122.27122,0,0,1-.27558-.23387c-.5178-3.04005-.95211-6.13853-1.37806-9.14519l-.15032-1.069c-.57628-3.99217-.94376-7.24932-1.15255-10.2643-.17541-2.2717-.26726-4.59347-.35076-6.84009-.04175-1.16091-.08355-2.31346-.142-3.47436-.03343-1.211-.11693-2.4387-.20048-3.633q-.05008-.75171-.10022-1.50331c-.10021-1.637-.21715-3.39917-.36748-5.13635a.26622.26622,0,0,1,.23388-.30065.27277.27277,0,0,1,.309.22546c.3424,1.72882.6013,3.48272.82681,5.11128.07519.50113.15033,1.00222.21716,1.51171.1754,1.17758.35912,2.397.48441,3.60792l.60967,5.11127.47605,5.14472c.29229,3.51611.45934,7.02381.60131,10.306C507.55765,419.81181,507.71634,422.05844,507.86667,424.22988Z" transform="translate(-309.41973 -310.64864)"/><path class="cls-2" d="M484.891,403.53424c.10022,2.898.10858,5.55394.02508,8.143-.1253,2.85629-.27562,5.51215-.451,8.12625-.10858,1.73718-.167,3.51611-.22546,5.22821-.03344.96048-.06683,1.9209-.10858,2.88137a.26913.26913,0,0,1-.26726.26726h-.00836a.27379.27379,0,0,1-.27562-.25054c-.11694-1.39478-.167-2.78115-.20044-4.084-.01672-.39256-.03339-.78507-.04175-1.17763-.03338-.94375-.07518-1.92926-.07518-2.88968l-.04175-4.059.05847-4.06731c.07518-2.79782.23387-5.55389.3925-8.1346.1253-1.74549.18377-3.51606.24224-5.22822.03339-.96042.06683-1.92089.11693-2.88967a.275.275,0,0,1,.27558-.25891.26931.26931,0,0,1,.27562.25891c.142,2.43034.21715,4.90248.284,7.29107Z" transform="translate(-309.41973 -310.64864)"/><path class="cls-2" d="M489.79344,384.6843l.20043,7.20758-.00831,7.20757c.00831,4.15916-.22551,8.38515-.44266,12.46918l-.29229,5.54558-.309,10.79882a.27464.27464,0,0,1-.05846.13361c-.00836.01672-.00836.0418-.01672.05011a.272.272,0,0,1-.19208.08354H488.666a.23332.23332,0,0,1-.18376-.07518.27789.27789,0,0,1-.09186-.17536c0-.02508-.00836-.05011-.00836-.06683-.18371-2.12138-.309-4.2761-.426-6.364l-.04175-.78506c-.142-2.40532-.26726-4.82735-.37584-7.19922-.309-5.62077-.40086-10.20588-.28393-14.42351.03339-2.43034.167-4.90248.30065-7.20757l.40087-7.20758c.11694-1.687.15869-3.41584.2088-5.07788.01672-.70152.0418-1.4114.05846-2.113.07519-2.29674.15033-4.76052.16705-7.19922a.28106.28106,0,0,1,.2589-.27562.28421.28421,0,0,1,.29234.25054C489.47607,375.29693,489.66819,380.34974,489.79344,384.6843Z" transform="translate(-309.41973 -310.64864)"/><path class="cls-2" d="M512.56035,424.58905c.1253,1.09407.24218,2.18815.3424,3.29059a.27558.27558,0,0,1-.23382.30065h-.04175a.2764.2764,0,0,1-.26726-.21715c-.55956-2.731-1.05233-5.51214-1.52-8.2098l-.1754-.96878c-.64306-3.57458-1.07736-6.50605-1.36965-9.22038-.23388-2.03783-.39256-4.12577-.54289-6.14688-.0835-1.044-.15869-2.08794-.25054-3.14027-.25055-2.96487-.55956-5.99656-.94376-9.24541a.26672.26672,0,0,1,.22552-.309.27881.27881,0,0,1,.31732.20879c.35917,1.54511.6431,3.12361.902,4.59347.07519.44267.15869.89365.24224,1.33632.19207,1.069.3925,2.17143.55119,3.25715l.71824,4.59347.593,4.62691c.37584,3.14858.64311,6.31393.88529,9.2788C512.1344,420.6136,512.35156,422.63471,512.56035,424.58905Z" transform="translate(-309.41973 -310.64864)"/><path class="cls-2" d="M503.173,423.88748q.0877,2.00439.15032,4.00883a.288.288,0,0,1-.25054.284h-.02508a.27222.27222,0,0,1-.27557-.23387c-.25059-1.67035-.451-3.36573-.6431-5.0027l-.70993-6.26382c-.51781-4.393-.81846-7.98428-.9437-11.30827-.11694-2.49717-.13366-5.04449-.15038-7.51658-.00831-1.26949-.01667-2.54728-.04175-3.81676,0-1.33632-.05011-2.6893-.10022-3.99217-.01672-.55955-.04174-1.11075-.05846-1.67035-.05847-1.7956-.12525-3.73322-.24219-5.6458a.277.277,0,0,1,.25055-.29229.25662.25662,0,0,1,.30065.23387c.593,3.53278.97719,7.06556,1.36134,11.27488l.50949,5.63744.35912,5.66247c.2088,3.26556.25055,6.58955.2923,9.81332l.01671,1.52C502.97254,419.01838,503.08112,421.49052,503.173,423.88748Z" transform="translate(-309.41973 -310.64864)"/></svg>